<svg width="253" height="246" viewBox="0 0 253 246" fill="none" xmlns="http://www.w3.org/2000/svg">
<path d="M239.049 77.1816V46.557H189.94L183.756 77.4572H201.412L195.745 105.843H178.089L171.957 136.622C171.492 138.706 171.13 140.222 170.924 141.669C169.477 151.073 173.594 150.626 186.805 150.626L180.759 180.889H157.643C135.785 180.889 118.026 180.665 122.642 158.325C123.365 154.828 124.244 151.452 124.881 148.128L133.132 105.877H116.148L121.832 77.4917H138.799L144.983 46.5915H129.084V0H70.2952V94.7331H0C1.73972 119.295 23.4777 122.86 31.4012 140.308C36.8615 152.331 41.6328 173.465 57.566 173.672C69.7785 173.827 69.7785 157.877 85.4877 157.877C101.197 157.877 108.156 187.709 122.125 212.254C132.598 231.562 149.995 244.48 165.739 245.565C178.675 246.461 184.928 242.069 184.928 242.069C181.431 235.041 179.691 228.048 179.691 217.524C179.691 201.73 191.904 185.97 205.856 175.428C225.045 161.374 245.99 156.103 252.966 154.38V105.257C253.001 105.257 239.049 97.7818 239.049 77.1816ZM158.97 150.608L179.605 46.557H155.817L135.182 150.608H158.97ZM185.996 13.6588H162.208L157.66 36.6186H181.448L185.996 13.6588Z" fill="#CC2027"/>
</svg>
